<svg xmlns="http://www.w3.org/2000/svg" xmlns:xlink="http://www.w3.org/1999/xlink" width="500" zoomAndPan="magnify" viewBox="0 0 375 374.999991" height="500" preserveAspectRatio="xMidYMid meet" version="1.0"><defs><g/><clipPath id="9dc8f00ab9"><path d="M 2.128906 2.128906 L 375 2.128906 L 375 375 L 2.128906 375 Z M 2.128906 2.128906 " clip-rule="nonzero"/></clipPath><clipPath id="999438112e"><path d="M 188.566406 2.128906 C 85.597656 2.128906 2.128906 85.597656 2.128906 188.566406 C 2.128906 291.53125 85.597656 375 188.566406 375 C 291.53125 375 375 291.53125 375 188.566406 C 375 85.597656 291.53125 2.128906 188.566406 2.128906 Z M 188.566406 2.128906 " clip-rule="nonzero"/></clipPath><clipPath id="cd6a527224"><path d="M 260 141 L 287.15625 141 L 287.15625 174 L 260 174 Z M 260 141 " clip-rule="nonzero"/></clipPath><clipPath id="d4ec68c087"><path d="M 170 140.085938 L 200 140.085938 L 200 154 L 170 154 Z M 170 140.085938 " clip-rule="nonzero"/></clipPath><clipPath id="311f3c5e9a"><path d="M 188.644531 161.9375 C 170.367188 165.699219 163.714844 151.785156 167.34375 148.019531 C 170.972656 144.253906 178.363281 147.144531 185.824219 145.597656 C 193.414062 144.050781 198.253906 138.742188 202.890625 140.824219 C 207.863281 142.773438 206.988281 158.171875 188.644531 161.9375 Z M 188.644531 161.9375 " clip-rule="nonzero"/></clipPath><clipPath id="976f0ed541"><path d="M 175 149 L 179 149 L 179 155 L 175 155 Z M 175 149 " clip-rule="nonzero"/></clipPath><clipPath id="08cfe50c6c"><path d="M 188.644531 161.9375 C 170.367188 165.699219 163.714844 151.785156 167.34375 148.019531 C 170.972656 144.253906 178.363281 147.144531 185.824219 145.597656 C 193.414062 144.050781 198.253906 138.742188 202.890625 140.824219 C 207.863281 142.773438 206.988281 158.171875 188.644531 161.9375 Z M 188.644531 161.9375 " clip-rule="nonzero"/></clipPath><clipPath id="dae3e46d41"><path d="M 177 156 L 200 156 L 200 162.945312 L 177 162.945312 Z M 177 156 " clip-rule="nonzero"/></clipPath><clipPath id="5b3a15e30f"><path d="M 188.644531 161.9375 C 170.367188 165.699219 163.714844 151.785156 167.34375 148.019531 C 170.972656 144.253906 178.363281 147.144531 185.824219 145.597656 C 193.414062 144.050781 198.253906 138.742188 202.890625 140.824219 C 207.863281 142.773438 206.988281 158.171875 188.644531 161.9375 Z M 188.644531 161.9375 " clip-rule="nonzero"/></clipPath></defs><g fill="#000000" fill-opacity="1"><g transform="translate(158.032084, 189.708436)"><g><path d="M 12.75 -32.078125 C 11.320312 -32.078125 10.238281 -31.6875 9.5 -30.90625 C 8.769531 -30.132812 8.40625 -28.988281 8.40625 -27.46875 L 8.40625 -24.5625 L 15.96875 -24.5625 L 15.96875 -21.765625 L 8.5 -21.765625 L 8.5 0 L 5.1875 0 L 5.1875 -21.765625 L 0.796875 -21.765625 L 0.796875 -24.5625 L 5.1875 -24.5625 L 5.1875 -27.59375 C 5.1875 -29.84375 5.832031 -31.617188 7.125 -32.921875 C 8.414062 -34.234375 10.242188 -34.890625 12.609375 -34.890625 C 13.546875 -34.890625 14.445312 -34.753906 15.3125 -34.484375 C 16.1875 -34.222656 16.921875 -33.84375 17.515625 -33.34375 L 16.390625 -30.875 C 15.421875 -31.675781 14.207031 -32.078125 12.75 -32.078125 Z M 12.75 -32.078125 "/></g></g></g><g fill="#000000" fill-opacity="1"><g transform="translate(173.862122, 189.708436)"><g><path d="M 12.75 -32.078125 C 11.320312 -32.078125 10.238281 -31.6875 9.5 -30.90625 C 8.769531 -30.132812 8.40625 -28.988281 8.40625 -27.46875 L 8.40625 -24.5625 L 15.96875 -24.5625 L 15.96875 -21.765625 L 8.5 -21.765625 L 8.5 0 L 5.1875 0 L 5.1875 -21.765625 L 0.796875 -21.765625 L 0.796875 -24.5625 L 5.1875 -24.5625 L 5.1875 -27.59375 C 5.1875 -29.84375 5.832031 -31.617188 7.125 -32.921875 C 8.414062 -34.234375 10.242188 -34.890625 12.609375 -34.890625 C 13.546875 -34.890625 14.445312 -34.753906 15.3125 -34.484375 C 16.1875 -34.222656 16.921875 -33.84375 17.515625 -33.34375 L 16.390625 -30.875 C 15.421875 -31.675781 14.207031 -32.078125 12.75 -32.078125 Z M 12.75 -32.078125 "/></g></g></g><g clip-path="url(#9dc8f00ab9)"><g clip-path="url(#999438112e)"><path fill="#38b6ff" d="M 2.128906 2.128906 L 375 2.128906 L 375 375 L 2.128906 375 Z M 2.128906 2.128906 " fill-opacity="1" fill-rule="nonzero"/></g></g><path fill="#632d28" d="M 208.792969 54.328125 C 209.972656 40.101562 201.941406 29.488281 185.144531 33.027344 C 177.921875 34.425781 173.945312 37.375 171.808594 40.175781 C 171.882812 43.566406 169.300781 47.472656 169.300781 47.472656 C 169.300781 47.472656 169.007812 43.863281 171.808594 40.175781 C 171.734375 36.859375 169.230469 34.058594 159.503906 35.753906 C 139.757812 39.292969 139.757812 60.007812 139.757812 60.007812 C 139.757812 60.007812 125.6875 64.503906 124.359375 68.042969 C 124.359375 68.042969 112.425781 55.953125 108.152344 61.773438 C 103.878906 67.671875 122.371094 71.359375 122.371094 71.359375 C 122.371094 71.359375 111.835938 79.761719 111.835938 98.484375 C 111.835938 117.210938 124.359375 145.589844 124.359375 145.589844 L 234.285156 121.558594 C 234.285156 121.558594 227.0625 82.488281 220.210938 75.042969 C 224.191406 62.363281 218.738281 51.824219 208.792969 54.328125 Z M 208.792969 54.328125 " fill-opacity="1" fill-rule="nonzero"/><path fill="#632d28" d="M 169.300781 47.546875 C 169.300781 47.546875 171.882812 43.640625 171.808594 40.25 C 169.007812 43.9375 169.300781 47.546875 169.300781 47.546875 Z M 169.300781 47.546875 " fill-opacity="1" fill-rule="nonzero"/><path fill="#ffc1a0" d="M 153.316406 210.828125 L 139.097656 203.015625 C 139.097656 203.015625 126.203125 218.054688 127.601562 223.507812 C 129.003906 228.816406 153.757812 234.417969 153.757812 234.417969 L 157.074219 222.476562 L 148.304688 217.613281 Z M 153.316406 210.828125 " fill-opacity="1" fill-rule="nonzero"/><path fill="#ffc1a0" d="M 268.027344 172.792969 L 263.3125 157.605469 L 213.875 170.582031 L 221.757812 190.851562 Z M 268.027344 172.792969 " fill-opacity="1" fill-rule="nonzero"/><path fill="#ffc1a0" d="M 196.488281 327.082031 L 208.792969 326.710938 C 208.792969 326.710938 211.296875 271.644531 211.519531 270.613281 L 192.804688 271.203125 Z M 196.488281 327.082031 " fill-opacity="1" fill-rule="nonzero"/><path fill="#ff6600" d="M 207.980469 328.847656 C 207.980469 328.847656 201.574219 329.4375 194.71875 327.667969 C 189.414062 333.714844 189.046875 346.613281 189.046875 346.613281 C 189.046875 346.613281 216.96875 348.015625 231.777344 346.835938 C 231.042969 337.621094 207.980469 328.847656 207.980469 328.847656 Z M 207.980469 328.847656 " fill-opacity="1" fill-rule="nonzero"/><path fill="#ba4b00" d="M 189.414062 343.296875 C 189.195312 345.289062 189.195312 346.613281 189.195312 346.613281 C 189.195312 346.613281 217.117188 348.015625 231.925781 346.835938 C 231.707031 346.246094 231.558594 345.433594 231.335938 344.847656 C 221.832031 345.066406 199.804688 345.289062 189.414062 343.296875 Z M 189.414062 343.296875 " fill-opacity="1" fill-rule="nonzero"/><path fill="#ba4b00" d="M 216.96875 337.84375 L 218.148438 338.800781 L 221.832031 335.261719 L 220.285156 333.9375 Z M 216.96875 337.84375 " fill-opacity="1" fill-rule="nonzero"/><path fill="#ba4b00" d="M 214.390625 336.441406 L 215.792969 337.253906 L 218.738281 333.125 L 216.75 331.945312 Z M 214.390625 336.441406 " fill-opacity="1" fill-rule="nonzero"/><path fill="#ba4b00" d="M 211.078125 335.113281 L 212.476562 335.703125 L 214.980469 331.355469 L 213.066406 330.398438 Z M 211.078125 335.113281 " fill-opacity="1" fill-rule="nonzero"/><path fill="#bde0dc" d="M 194.132812 330.398438 C 199.4375 331.945312 204.667969 332.386719 210.5625 330.175781 L 210.78125 319.046875 L 193.027344 319.414062 Z M 194.132812 330.398438 " fill-opacity="1" fill-rule="nonzero"/><path fill="#ffc1a0" d="M 171.882812 326.492188 L 184.183594 326.859375 L 185.363281 270.980469 L 166.648438 270.390625 C 166.796875 271.425781 171.882812 326.492188 171.882812 326.492188 Z M 171.882812 326.492188 " fill-opacity="1" fill-rule="nonzero"/><path fill="#ff6600" d="M 172.617188 328.847656 C 172.617188 328.847656 150 337.621094 149.558594 346.835938 C 164.585938 348.015625 192.289062 346.613281 192.289062 346.613281 C 192.289062 346.613281 191.332031 333.714844 185.660156 327.667969 C 179.101562 329.4375 172.617188 328.847656 172.617188 328.847656 Z M 172.617188 328.847656 " fill-opacity="1" fill-rule="nonzero"/><path fill="#ba4b00" d="M 150 344.847656 C 149.777344 345.433594 149.632812 346.246094 149.632812 346.835938 C 164.660156 348.015625 192.363281 346.613281 192.363281 346.613281 C 192.363281 346.613281 192.140625 345.214844 191.996094 343.296875 C 181.605469 345.289062 159.578125 345.066406 150 344.847656 Z M 150 344.847656 " fill-opacity="1" fill-rule="nonzero"/><path fill="#ba4b00" d="M 158.988281 335.261719 L 162.894531 338.800781 L 164.070312 337.84375 L 160.535156 333.9375 Z M 158.988281 335.261719 " fill-opacity="1" fill-rule="nonzero"/><path fill="#ba4b00" d="M 162.304688 333.125 L 165.398438 337.253906 L 166.796875 336.441406 L 164.21875 331.945312 Z M 162.304688 333.125 " fill-opacity="1" fill-rule="nonzero"/><path fill="#ba4b00" d="M 165.617188 331.355469 L 168.34375 335.703125 L 169.746094 335.113281 L 167.535156 330.398438 Z M 165.617188 331.355469 " fill-opacity="1" fill-rule="nonzero"/><path fill="#632d28" d="M 166.355469 302.089844 C 166.355469 302.089844 174.535156 305.996094 186.691406 303.859375 C 187.648438 298.550781 185.878906 267.738281 185.878906 267.738281 L 192.140625 268.105469 L 192.953125 304.082031 C 192.953125 304.082031 201.71875 306.585938 212.109375 302.3125 C 215.792969 285.503906 216.96875 245.253906 216.96875 245.253906 L 158.03125 243.855469 Z M 166.355469 302.089844 " fill-opacity="1" fill-rule="nonzero"/><path fill="#3bbd5d" d="M 194.132812 172.351562 C 189.046875 171.980469 182.785156 172.351562 174.605469 173.308594 C 174.605469 173.308594 151.769531 180.53125 149.042969 184.660156 C 143 193.875 134.011719 205.375 134.011719 205.375 C 137.328125 208.324219 146.683594 214.367188 153.90625 214.738281 C 158.398438 215.105469 158.988281 210.238281 161.492188 208.46875 C 159.945312 219.601562 154.640625 247.320312 154.640625 247.320312 C 154.640625 247.320312 201.5 258.230469 219.476562 247.097656 C 216.75 227.5625 214.761719 218.203125 214.761719 218.203125 C 214.390625 210.609375 213.800781 204.121094 213.214844 198.667969 C 218.519531 196.527344 225.738281 193.800781 231.558594 192.253906 C 235.464844 179.722656 226.105469 166.082031 226.105469 166.082031 C 226.105469 166.082031 195.679688 171.980469 194.132812 172.351562 Z M 194.132812 172.351562 " fill-opacity="1" fill-rule="nonzero"/><path fill="#ffa474" d="M 172.472656 169.84375 L 172.101562 176.699219 C 172.101562 176.699219 179.101562 180.382812 188.3125 178.6875 C 197.519531 176.921875 198.625 172.792969 198.625 172.792969 L 197.226562 164.976562 Z M 172.472656 169.84375 " fill-opacity="1" fill-rule="nonzero"/><path fill="#ffc1a0" d="M 232.007812 107.304688 C 221.257812 103.808594 216.570312 120.960938 216.570312 120.960938 L 219.777344 136.429688 C 219.777344 136.429688 226.398438 139.984375 234.589844 134.816406 C 242.71875 129.617188 242.738281 110.746094 232.007812 107.304688 Z M 232.007812 107.304688 " fill-opacity="1" fill-rule="nonzero"/><path fill="#ff8e52" d="M 228.402344 116.257812 C 223.769531 114.640625 221.773438 122.140625 221.773438 122.140625 L 223.210938 128.875 C 223.210938 128.875 225.953125 130.46875 229.589844 128.242188 C 233.050781 125.957031 233.140625 117.683594 228.402344 116.257812 Z M 228.402344 116.257812 " fill-opacity="1" fill-rule="nonzero"/><path fill="#ffc1a0" d="M 122.449219 140.359375 C 115.421875 149.214844 125.851562 164.875 135.496094 164.714844 C 145.128906 164.503906 148.730469 157.867188 148.730469 157.867188 L 142.855469 143.199219 C 142.90625 143.183594 129.523438 131.488281 122.449219 140.359375 Z M 122.449219 140.359375 " fill-opacity="1" fill-rule="nonzero"/><path fill="#ff8e52" d="M 130.351562 145.679688 C 127.238281 149.636719 131.757812 156.410156 135.96875 156.273438 C 140.082031 156.164062 141.636719 153.269531 141.636719 153.269531 L 139.113281 146.863281 C 139.128906 146.914062 133.515625 141.871094 130.351562 145.679688 Z M 130.351562 145.679688 " fill-opacity="1" fill-rule="nonzero"/><path fill="#ffc1a0" d="M 135.210938 104.0625 C 131.414062 129.355469 135.195312 154.78125 147.167969 165.019531 C 158.40625 174.777344 174.691406 176.277344 191.824219 171.109375 C 208.859375 165.96875 221.601562 155.710938 225.671875 141.332031 C 229.945312 126.195312 221.136719 101.257812 204.015625 82.335938 C 179.71875 112.355469 150.167969 94 135.210938 104.0625 Z M 135.210938 104.0625 " fill-opacity="1" fill-rule="nonzero"/><path fill="#632d28" d="M 205.484375 94.179688 C 203.253906 92.859375 200.207031 92.214844 197.671875 92.386719 C 196.164062 92.570312 194.6875 92.855469 193.742188 94.003906 C 193.21875 94.59375 193.0625 95.5 193.355469 96.113281 C 193.667969 96.613281 194.179688 96.890625 194.648438 97.015625 C 195.3125 97.25 196.175781 97.257812 196.820312 97.0625 C 197.757812 96.78125 198.644531 96.511719 199.582031 96.230469 C 201.410156 95.679688 203.183594 95.84375 205.101562 96.128906 C 205.539062 96.15625 205.964844 96.136719 206.332031 95.917969 C 206.433594 95.726562 206.53125 95.695312 206.503906 95.597656 C 206.578125 95.304688 206.488281 95.007812 206.488281 95.007812 C 206.21875 94.65625 205.804688 94.351562 205.484375 94.179688 Z M 205.484375 94.179688 " fill-opacity="1" fill-rule="nonzero"/><path fill="#632d28" d="M 147.832031 106.992188 C 146.410156 106.558594 145.023438 107.140625 143.667969 107.816406 C 141.460938 109.078125 139.273438 111.296875 138.148438 113.632812 C 137.976562 113.953125 137.796875 114.4375 137.816406 114.863281 C 137.816406 114.863281 137.890625 115.109375 138.128906 115.363281 C 138.175781 115.511719 138.324219 115.464844 138.449219 115.535156 C 138.890625 115.5625 139.242188 115.296875 139.589844 115.03125 C 141.03125 113.734375 142.417969 112.613281 144.246094 112.0625 C 145.183594 111.78125 146.070312 111.511719 147.011719 111.226562 C 147.652344 111.035156 148.367188 110.550781 148.792969 109.992188 C 149.113281 109.625 149.386719 109.109375 149.371094 108.523438 C 149.226562 107.863281 148.59375 107.195312 147.832031 106.992188 Z M 147.832031 106.992188 " fill-opacity="1" fill-rule="nonzero"/><path fill="#fefefe" d="M 196.648438 110.265625 C 190.203125 112.640625 187.441406 119.023438 190.007812 126.117188 C 192.429688 133.257812 199.730469 134.609375 204.988281 132.753906 C 210.246094 130.898438 214.511719 125.570312 213.515625 118.324219 C 212.339844 109.789062 203.800781 106.652344 196.648438 110.265625 Z M 196.648438 110.265625 " fill-opacity="1" fill-rule="nonzero"/><path fill="#632d28" d="M 188.757812 119.648438 C 195.832031 102.371094 210.222656 111.34375 210.253906 111.441406 C 206.484375 104.117188 190.660156 105.226562 188.757812 119.648438 Z M 188.757812 119.648438 " fill-opacity="1" fill-rule="nonzero"/><path fill="#632d28" d="M 195.699219 117.125 C 191.503906 118.390625 189.125 122.828125 190.492188 126.832031 C 191.714844 130.882812 196 133.308594 200.195312 132.042969 C 204.246094 130.824219 206.667969 126.535156 205.40625 122.335938 C 204.183594 118.285156 199.898438 115.859375 195.699219 117.125 Z M 195.699219 117.125 " fill-opacity="1" fill-rule="nonzero"/><path fill="#1d0703" d="M 196.921875 121.175781 C 194.945312 121.773438 193.992188 123.785156 194.542969 125.613281 C 195.09375 127.441406 197.148438 128.542969 198.976562 127.992188 C 200.804688 127.441406 201.90625 125.382812 201.355469 123.558594 C 200.804688 121.730469 198.75 120.625 196.921875 121.175781 Z M 196.921875 121.175781 " fill-opacity="1" fill-rule="nonzero"/><path fill="#fefefe" d="M 194.179688 119.578125 C 192.597656 120.054688 191.769531 121.597656 192.246094 123.179688 C 192.722656 124.761719 194.265625 125.589844 195.84375 125.113281 C 197.425781 124.632812 198.253906 123.089844 197.777344 121.511719 C 197.25 119.945312 195.707031 119.117188 194.179688 119.578125 Z M 194.179688 119.578125 " fill-opacity="1" fill-rule="nonzero"/><path fill="#fefefe" d="M 200.691406 126.183594 C 199.902344 126.421875 199.523438 127.128906 199.761719 127.917969 C 200 128.707031 200.707031 129.085938 201.496094 128.847656 C 202.285156 128.609375 202.664062 127.902344 202.441406 127.164062 C 202.175781 126.273438 201.382812 125.972656 200.691406 126.183594 Z M 200.691406 126.183594 " fill-opacity="1" fill-rule="nonzero"/><path fill="#ff8e52" d="M 185.957031 136.449219 C 184.691406 135.105469 180.441406 139.40625 180.148438 142.1875 C 180.148438 142.1875 182.929688 139.085938 184.875 138.929688 C 186.820312 138.773438 186.886719 142.203125 186.886719 142.203125 C 188.222656 138.78125 186.5625 137.019531 185.957031 136.449219 Z M 185.957031 136.449219 " fill-opacity="1" fill-rule="nonzero"/><path fill="#f2957c" d="M 211.929688 133.625 C 208.769531 134.578125 206.808594 137 207.449219 139.125 C 208.074219 141.199219 211.0625 142.183594 214.222656 141.230469 C 217.382812 140.277344 219.34375 137.855469 218.707031 135.730469 C 218.078125 133.65625 215.089844 132.671875 211.929688 133.625 Z M 211.929688 133.625 " fill-opacity="1" fill-rule="nonzero"/><path fill="#f2957c" d="M 152.929688 151.425781 C 149.769531 152.378906 147.808594 154.800781 148.449219 156.925781 C 149.074219 159 152.0625 159.984375 155.222656 159.03125 C 158.382812 158.078125 160.34375 155.65625 159.703125 153.53125 C 159.078125 151.457031 156.089844 150.472656 152.929688 151.425781 Z M 152.929688 151.425781 " fill-opacity="1" fill-rule="nonzero"/><path fill="#fefefe" d="M 155.945312 122.652344 C 147.910156 123.511719 142.675781 130.804688 146.347656 138.699219 C 149.46875 145.300781 155.921875 147.234375 161.421875 146.007812 C 166.878906 144.628906 172.167969 139.476562 170.238281 132.191406 C 168.378906 124.9375 162.484375 121.109375 155.945312 122.652344 Z M 155.945312 122.652344 " fill-opacity="1" fill-rule="nonzero"/><path fill="#632d28" d="M 145.230469 131.058594 C 145.183594 130.910156 152.238281 115.527344 167.675781 126.011719 C 158.199219 115.289062 144.324219 122.871094 145.230469 131.058594 Z M 145.230469 131.058594 " fill-opacity="1" fill-rule="nonzero"/><path fill="#632d28" d="M 160.214844 126.808594 C 156.167969 128.027344 153.742188 132.316406 155.007812 136.515625 C 156.230469 140.566406 160.515625 142.992188 164.710938 141.726562 C 168.757812 140.503906 171.183594 136.214844 169.917969 132.015625 C 168.699219 127.964844 164.265625 125.585938 160.214844 126.808594 Z M 160.214844 126.808594 " fill-opacity="1" fill-rule="nonzero"/><path fill="#1d0703" d="M 161.289062 130.902344 C 159.460938 131.453125 158.359375 133.511719 158.910156 135.339844 C 159.460938 137.167969 161.515625 138.269531 163.34375 137.71875 C 165.167969 137.167969 166.273438 135.113281 165.722656 133.285156 C 165.171875 131.457031 163.261719 130.308594 161.289062 130.902344 Z M 161.289062 130.902344 " fill-opacity="1" fill-rule="nonzero"/><path fill="#fefefe" d="M 162.742188 128.039062 C 161.160156 128.515625 160.332031 130.058594 160.808594 131.640625 C 161.285156 133.222656 162.828125 134.050781 164.410156 133.570312 C 165.988281 133.09375 166.816406 131.550781 166.339844 129.972656 C 165.8125 128.40625 164.320312 127.5625 162.742188 128.039062 Z M 162.742188 128.039062 " fill-opacity="1" fill-rule="nonzero"/><path fill="#fefefe" d="M 160.910156 137.160156 C 160.121094 137.398438 159.742188 138.105469 160.03125 138.882812 C 160.269531 139.671875 161.074219 140.019531 161.765625 139.8125 C 162.554688 139.574219 162.902344 138.769531 162.644531 138.09375 C 162.359375 137.316406 161.703125 136.921875 160.910156 137.160156 Z M 160.910156 137.160156 " fill-opacity="1" fill-rule="nonzero"/><path fill="#bde0dc" d="M 170.261719 330.175781 C 176.15625 332.3125 181.605469 331.945312 186.691406 330.398438 L 187.5 319.488281 L 169.523438 319.117188 Z M 170.261719 330.175781 " fill-opacity="1" fill-rule="nonzero"/><g clip-path="url(#cd6a527224)"><path fill="#ffc1a0" d="M 287.035156 165.050781 C 287.035156 161.511719 283.867188 151.265625 281.511719 150.457031 C 279.078125 149.71875 272.742188 151.78125 272.742188 151.78125 C 272.742188 151.78125 272.078125 147.726562 271.417969 145.148438 C 270.753906 142.640625 269.355469 140.945312 267.144531 141.390625 C 264.933594 141.90625 266.257812 142.421875 266.847656 145.960938 C 267.660156 149.351562 259.703125 153.183594 261.175781 160.40625 C 262.648438 167.410156 265.152344 172.9375 265.152344 172.9375 C 266.554688 172.9375 271.488281 174.855469 276.574219 172.9375 C 281.65625 171.171875 286.960938 168.515625 287.035156 165.050781 Z M 287.035156 165.050781 " fill-opacity="1" fill-rule="nonzero"/></g><path fill="#f2957c" d="M 267.804688 155.835938 C 267.804688 156.5 268.101562 157.164062 268.542969 157.679688 C 268.765625 157.902344 269.058594 158.195312 269.425781 158.34375 C 269.796875 158.492188 270.238281 158.417969 270.53125 158.417969 C 272.375 158.417969 274.140625 157.976562 275.761719 157.238281 C 274.878906 157.902344 273.773438 158.34375 272.816406 158.933594 C 271.636719 159.746094 270.3125 161.734375 271.859375 162.839844 C 272.449219 163.28125 273.183594 163.28125 273.921875 163.28125 C 275.394531 163.207031 276.792969 162.914062 278.195312 162.472656 C 277.382812 163.136719 276.351562 163.28125 275.394531 163.578125 C 274.4375 163.871094 273.40625 164.460938 273.109375 165.421875 C 272.742188 166.746094 273.996094 168.074219 275.394531 168.296875 C 276.792969 168.515625 278.121094 167.925781 279.375 167.335938 C 278.195312 168.148438 276.941406 168.957031 275.542969 169.253906 C 274.140625 169.621094 272.523438 169.402344 271.488281 168.515625 C 270.457031 167.632812 270.015625 165.789062 270.902344 164.683594 C 269.941406 164.535156 269.132812 163.871094 268.691406 162.988281 C 268.320312 162.101562 268.320312 161.070312 268.835938 160.1875 C 267.4375 160.332031 266.257812 158.859375 266.113281 157.460938 C 265.890625 155.761719 266.628906 153.996094 267.953125 152.886719 C 268.835938 152.152344 270.53125 151.414062 271.710938 151.855469 C 270.679688 153.625 267.878906 153.257812 267.804688 155.835938 Z M 267.804688 155.835938 " fill-opacity="1" fill-rule="nonzero"/><path fill="#adf2bb" d="M 213.285156 198.519531 C 211.296875 193.210938 206.878906 182.523438 201.351562 173.675781 C 199.214844 177.804688 192.730469 181.710938 183.226562 181.710938 C 173.648438 181.710938 170.703125 178.394531 170.703125 178.394531 L 165.617188 181.710938 L 161.125 208.46875 C 161.347656 208.25 161.347656 208.25 161.492188 208.25 C 159.945312 219.378906 154.640625 247.097656 154.640625 247.097656 C 154.640625 247.097656 201.5 258.007812 219.476562 246.875 C 216.75 227.34375 214.761719 217.980469 214.761719 217.980469 C 214.390625 210.460938 213.800781 203.972656 213.285156 198.519531 Z M 213.285156 198.519531 " fill-opacity="1" fill-rule="nonzero"/><path fill="#ffc1a0" d="M 163.851562 229.699219 C 163.628906 229.628906 163.410156 229.628906 163.410156 229.628906 C 163.410156 229.628906 163.628906 229.628906 163.851562 229.699219 Z M 163.851562 229.699219 " fill-opacity="1" fill-rule="nonzero"/><path fill="#ffc1a0" d="M 166.207031 220.78125 C 166.207031 220.78125 174.019531 221.738281 173.429688 219.234375 C 172.839844 216.726562 165.25 214.957031 161.933594 215.914062 C 158.621094 216.875 155.527344 223.363281 155.527344 223.363281 C 155.527344 223.363281 151.988281 225.5 152.578125 233.164062 C 157.882812 239.429688 160.757812 233.753906 160.757812 233.753906 C 160.757812 233.753906 168.34375 235.746094 168.566406 233.164062 C 168.714844 231.027344 165.101562 229.996094 163.925781 229.699219 C 163.703125 229.628906 163.480469 229.628906 163.480469 229.628906 C 163.480469 229.628906 163.628906 229.628906 163.925781 229.699219 C 165.546875 230.070312 171.734375 231.175781 171.882812 228.449219 C 172.027344 226.679688 169.964844 225.941406 168.34375 225.574219 C 167.167969 225.425781 166.207031 225.277344 166.207031 225.277344 C 166.207031 225.277344 167.167969 225.277344 168.34375 225.574219 C 170.703125 225.792969 174.164062 225.867188 174.460938 224.320312 C 174.753906 221.960938 166.207031 220.78125 166.207031 220.78125 Z M 166.207031 220.78125 " fill-opacity="1" fill-rule="nonzero"/><path fill="#ffc1a0" d="M 168.34375 225.574219 C 167.238281 225.351562 166.207031 225.277344 166.207031 225.277344 C 166.207031 225.277344 167.09375 225.425781 168.34375 225.574219 Z M 168.34375 225.574219 " fill-opacity="1" fill-rule="nonzero"/><path fill="#632d28" d="M 202.957031 140.894531 C 198.253906 138.808594 193.484375 144.050781 185.890625 145.667969 C 178.433594 147.210938 171.039062 144.320312 167.414062 148.085938 C 163.785156 151.851562 170.4375 165.699219 188.710938 162.003906 C 206.988281 158.171875 207.863281 142.773438 202.957031 140.894531 Z M 202.957031 140.894531 " fill-opacity="1" fill-rule="nonzero"/><g clip-path="url(#d4ec68c087)"><g clip-path="url(#311f3c5e9a)"><path fill="#fefefe" d="M 170.167969 145.800781 C 172.453125 151.113281 179.441406 154.203125 186.898438 152.65625 C 194.355469 151.246094 199.730469 145.800781 199.730469 139.953125 C 195.902344 140.558594 191.667969 143.917969 185.890625 144.992188 C 179.910156 146.203125 174.0625 144.65625 170.167969 145.800781 Z M 170.167969 145.800781 " fill-opacity="1" fill-rule="nonzero"/></g></g><g clip-path="url(#976f0ed541)"><g clip-path="url(#08cfe50c6c)"><path fill="#632d28" d="M 177.558594 154.875 L 178.097656 149.835938 L 175.207031 153.332031 Z M 177.558594 154.875 " fill-opacity="1" fill-rule="nonzero"/></g></g><g clip-path="url(#dae3e46d41)"><g clip-path="url(#5b3a15e30f)"><path fill="#d84141" d="M 187.90625 156.558594 C 183.402344 157.5 179.640625 159.582031 177.15625 162.070312 C 179.777344 162.742188 182.800781 163.078125 186.359375 162.675781 C 187.167969 162.539062 187.972656 162.472656 188.980469 162.203125 C 189.382812 162.136719 189.921875 162.003906 190.324219 161.9375 C 190.59375 161.9375 190.996094 161.734375 191.265625 161.667969 L 191.398438 161.667969 C 194.757812 160.726562 197.515625 159.3125 199.664062 157.5 C 196.371094 156.152344 192.140625 155.816406 187.90625 156.558594 Z M 187.90625 156.558594 " fill-opacity="1" fill-rule="nonzero"/></g></g></svg>